<svg id="Capa_1" enable-background="new 0 0 512 512" height="512" viewBox="0 0 512 512" width="512" xmlns="http://www.w3.org/2000/svg"><g><path d="m404.518 376.531v59.658c0 13.137 10.649 23.786 23.786 23.786h39.306c13.137 0 23.786-10.649 23.786-23.786v-59.658l-43.439-10.302z" fill="#bd7669"/><path d="m440.259 204.491-184.259 30.905-204.863-30.905v-93.303c0-32.675 26.489-59.164 59.164-59.164h270.795c32.675 0 59.164 26.489 59.164 59.164v93.303z" fill="#d6948c"/><path d="m401.699 52.024h-76.949c32.675 0 59.164 26.488 59.164 59.164v93.303l67.82 14.423 9.129-14.423v-93.303c0-32.675-26.488-59.164-59.164-59.164z" fill="#ce857a"/><path d="m20.604 376.531v59.658c0 13.137 10.649 23.786 23.786 23.786h39.306c13.137 0 23.786-10.649 23.786-23.786v-59.658l-43.439-10.302z" fill="#bd7669"/><path d="m491.396 326.567v34.254c0 14.371-11.641 26.012-26.012 26.012h-439.372c-14.371 0-26.012-11.641-26.012-26.012v-34.254l256-46.646z" fill="#d6948c"/><path d="m477.489 309.913-57.261 16.655v34.254c0 14.371-11.641 26.012-26.012 26.012h91.772c14.371 0 26.012-11.641 26.012-26.012v-34.254z" fill="#ce857a"/><g fill="#fff"><path d="m414.82 154.7v49.79l-11.87 4.05-48.57 16.55-60.43-20.6v-49.79c0-18.02 14.6-32.62 32.62-32.62h55.63c.57 0 1.14.01 1.71.04 17.21.89 30.91 15.13 30.91 32.58z"/><path d="m185.433 122.076c18.017 0 32.622 14.606 32.622 32.622v49.792l-60.437 20.604-60.438-20.603v-49.792c0-18.017 14.606-32.622 32.622-32.622h55.631z"/></g><path d="m491.396 240.805v85.763h-491.396v-85.763c0-20.058 16.256-36.314 36.314-36.314h418.769c20.057 0 36.313 16.256 36.313 36.314z" fill="#fce3a0"/><path d="m475.686 204.491h-91.772c20.058 0 36.314 16.256 36.314 36.314v85.763h91.772v-85.763c0-20.058-16.256-36.314-36.314-36.314z" fill="#ffce71"/><g><ellipse cx="182.744" cy="271.031" fill="#ffa1ac" rx="27.03" ry="21.525"/><ellipse cx="329.256" cy="271.031" fill="#ffa1ac" rx="27.03" ry="21.525"/><g><g><g><path d="m198.497 256.781c-7.512 0-14.656-3.253-19.6-8.926-2.722-3.122-2.396-7.86.726-10.581 3.122-2.724 7.86-2.398 10.582.726 2.095 2.403 5.117 3.781 8.292 3.781 3.176 0 6.198-1.378 8.293-3.781 2.722-3.123 7.459-3.448 10.582-.726 3.123 2.721 3.448 7.459.726 10.581-4.945 5.673-12.089 8.926-19.601 8.926z" fill="#303646"/></g><g><path d="m313.503 256.781c-7.512 0-14.657-3.253-19.601-8.926-2.722-3.122-2.396-7.86.726-10.581 3.122-2.724 7.86-2.398 10.582.726 2.095 2.403 5.117 3.781 8.293 3.781 3.175 0 6.198-1.378 8.292-3.781 2.721-3.123 7.459-3.448 10.582-.726 3.123 2.721 3.448 7.459.726 10.581-4.943 5.673-12.087 8.926-19.6 8.926z" fill="#303646"/></g><ellipse cx="256" cy="261.965" fill="#303646" rx="10.783" ry="11.5"/></g></g></g></g></svg>